<?xml version="1.0" encoding="UTF-8" standalone="no"?><!DOCTYPE svg PUBLIC "-//W3C//DTD SVG 1.1//EN" "http://www.w3.org/Graphics/SVG/1.1/DTD/svg11.dtd"><svg width="100%" height="100%" viewBox="0 0 2481 3508" version="1.1" xmlns="http://www.w3.org/2000/svg" xmlns:xlink="http://www.w3.org/1999/xlink" xml:space="preserve" xmlns:serif="http://www.serif.com/" style="fill-rule:evenodd;clip-rule:evenodd;stroke-linejoin:round;stroke-miterlimit:1.41421;"><path d="M1215.26,1747.13l827.648,-827.648c69,-69 181.038,-69 250.038,0l47.626,47.626c68.999,68.999 68.999,181.037 0,250.037l-994.737,994.737c-59.668,59.668 -151.52,67.737 -219.892,24.206c-19.589,-8.579 -37.934,-20.882 -53.958,-36.906l-502.925,-502.925c-69,-69 -69,-181.037 0,-250.037l47.626,-47.626c68.999,-69 181.037,-69 250.037,0l348.537,348.536Z" style="fill:url(#_Linear1);"/><path d="M2332.59,1383.67c75.559,225.263 83.252,474.319 14.017,704.241c-98.307,326.47 -348.372,602.655 -662.973,733.533c-345.206,143.61 -760.895,106.444 -1076.77,-101.529c-315.165,-207.505 -519.503,-573.834 -520.733,-961.288c-1.196,-377.033 194.056,-749.465 512.05,-962.967c182.466,-122.508 401.487,-191.043 620.286,-195.213c8.68,-0.165 17.36,-0.218 26.053,-0.207c254.258,1.303 507.614,91.319 710.282,249.27c-47.233,46.992 -94.419,94.031 -141.569,141.103c-55.845,-42.599 -116.722,-79.196 -181.899,-108.447c-121.205,-54.394 -254.055,-82.57 -387.45,-83.254l-6.187,0c-347.547,1.782 -684.511,203.789 -846.984,518.453c-134.232,259.969 -140.553,582.326 -12.896,849.134c128.129,267.795 386.854,469.698 679.094,526.71c299.309,58.392 623.747,-35.782 845.36,-248.4c185.049,-177.537 294.512,-431.423 294.512,-689.909c0,-70.833 -8.478,-141.355 -24.658,-210.136c53.518,-53.669 107.008,-107.366 160.467,-161.094Z" style="fill:url(#_Radial2);fill-rule:nonzero;"/><defs><linearGradient id="_Linear1" x1="0" y1="0" x2="1" y2="0" gradientUnits="userSpaceOnUse" gradientTransform="matrix(1875.01,0,0,1395.9,517.307,1565.68)"><stop offset="0" style="stop-color:#c3db9a;stop-opacity:1"/><stop offset="1" style="stop-color:#17a737;stop-opacity:1"/></linearGradient><radialGradient id="_Radial2" cx="0" cy="0" r="1" gradientUnits="userSpaceOnUse" gradientTransform="matrix(2308.08,0,0,2307.4,86.1189,1753.94)"><stop offset="0" style="stop-color:#9d9c9c;stop-opacity:1"/><stop offset="1" style="stop-color:#d8d8d8;stop-opacity:1"/></radialGradient></defs></svg>